<svg xmlns="http://www.w3.org/2000/svg" xmlns:xlink="http://www.w3.org/1999/xlink" width="110px" height="110px" viewBox="0 0 110 110" version="1.1">
    <title>Group 4 Copy 6</title>
    <defs>
        <path d="M0,54.9996335 C0,85.3748959 24.6451008,110 55.0475817,110 L55.0475817,110 C83.7188224,110 107.270277,88.0989637 109.858719,60.128153 L109.858719,60.128153 L95.5183406,64.1768685 C91.3260308,82.6772184 74.7712753,96.4896205 54.9875556,96.4896205 L54.9875556,96.4896205 C32.0378258,96.4896205 13.432667,77.9013029 13.432667,54.9703109 L13.432667,54.9703109 C13.432667,32.040785 32.0378258,13.4517344 54.9875556,13.4517344 L54.9875556,13.4517344 C75.479876,13.4517344 92.5075199,28.2713672 95.9202225,47.7694179 L95.9202225,47.7694179 L110,51.7448269 C108.313413,22.8848089 84.3556845,0 55.0475817,0 L55.0475817,0 C24.6451008,0 0,24.6243711 0,54.9996335 L0,54.9996335 Z" id="path-1"/>
        <path d="M0,6.99961851 C0,10.8656603 3.13340599,14 6.99923706,14 L6.99923706,14 C10.8650681,14 14,10.8656603 14,6.99961851 L14,6.99961851 C14,3.13357676 10.8650681,0 6.99923706,0 L6.99923706,0 C3.13340599,0 0,3.13357676 0,6.99961851 L0,6.99961851 Z" id="path-3"/>
    </defs>
    <g id="Page-1" stroke="none" stroke-width="1" fill="none" fill-rule="evenodd">
        <g id="Apple-TV" transform="translate(-905.000000, -2678.000000)">
            <g id="Group-26" transform="translate(867.000000, 2640.000000)">
                <g id="Group-4-Copy-6" transform="translate(38.000000, 38.000000)">
                    <g id="Group-18">
                        <mask id="mask-2" fill="white">
                            <use xlink:href="#path-1"/>
                        </mask>
                        <g id="Clip-17"/>
                        <polygon id="Fill-16" fill="#EA222D" mask="url(#mask-2)" points="-4.79769479 114.803772 114.796963 114.803772 114.796963 -4.80450501 -4.79769479 -4.80450501"/>
                    </g>
                    <g id="Group-21" transform="translate(65.000000, 36.000000)">
                        <mask id="mask-4" fill="white">
                            <use xlink:href="#path-3"/>
                        </mask>
                        <g id="Clip-20"/>
                        <polygon id="Fill-19" fill="#EA222D" mask="url(#mask-4)" points="-5.00032698 19.0005995 18.999564 19.0005995 18.999564 -5.00059949 -5.00032698 -5.00059949"/>
                    </g>
                </g>
            </g>
        </g>
    </g>
</svg>